<svg width="40" height="41" viewBox="0 0 40 41" fill="none" xmlns="http://www.w3.org/2000/svg">
<g clip-path="url(#clip0_9_72)">
<path d="M0 2.93663C0 1.31456 1.315 0 2.9375 0H37.0625C38.685 0 40 1.31456 40 2.93663V38.0634C40 39.6854 38.685 41 37.0625 41H2.9375C1.315 41 0 39.6854 0 38.0634V2.93663ZM12.3575 34.3221V15.8081H6.355V34.3221H12.3575ZM9.3575 13.2789C11.45 13.2789 12.7525 11.8593 12.7525 10.0809C12.715 8.26406 11.4525 6.88288 9.3975 6.88288C7.3425 6.88288 6 8.26663 6 10.0809C6 11.8593 7.3025 13.2789 9.3175 13.2789H9.3575ZM21.6275 34.3221V23.9824C21.6275 23.4289 21.6675 22.8754 21.8275 22.4808C22.26 21.3764 23.2475 20.2309 24.9075 20.2309C27.08 20.2309 27.9475 21.9273 27.9475 24.4181V34.3221H33.95V23.7031C33.95 18.0144 30.99 15.3699 27.04 15.3699C23.855 15.3699 22.4275 17.1636 21.6275 18.4269V18.491H21.5875C21.6008 18.4696 21.6141 18.4483 21.6275 18.4269V15.8081H15.6275C15.7025 17.5454 15.6275 34.3221 15.6275 34.3221H21.6275Z" fill="black"/>
</g>
<defs>
<clipPath id="clip0_9_72">
<rect width="40" height="41" fill="white"/>
</clipPath>
</defs>
</svg>
