<svg width="41" height="41" viewBox="0 0 41 41" fill="none" xmlns="http://www.w3.org/2000/svg">
<g clip-path="url(#clip0_19_146)">
<path d="M0.569336 2.93663C0.569336 1.31456 1.88263 0 3.50303 0H37.5838C39.2042 0 40.5175 1.31456 40.5175 2.93663V38.0634C40.5175 39.6854 39.2042 41 37.5838 41H3.50303C1.88263 41 0.569336 39.6854 0.569336 38.0634V2.93663ZM12.9108 34.3221V15.8081H6.91611V34.3221H12.9108ZM9.91472 13.2789C12.0045 13.2789 13.3053 11.8593 13.3053 10.0809C13.2679 8.26406 12.007 6.88288 9.95467 6.88288C7.90233 6.88288 6.56157 8.26663 6.56157 10.0809C6.56157 11.8593 7.86238 13.2789 9.87477 13.2789H9.91472ZM22.1688 34.3221V23.9824C22.1688 23.4289 22.2088 22.8754 22.3686 22.4808C22.8005 21.3764 23.7867 20.2309 25.4446 20.2309C27.6143 20.2309 28.4806 21.9273 28.4806 24.4181V34.3221H34.4754V23.7031C34.4754 18.0144 31.5192 15.3699 27.5743 15.3699C24.3934 15.3699 22.9678 17.1636 22.1688 18.4269V18.491H22.1289C22.1421 18.4696 22.1555 18.4483 22.1688 18.4269V15.8081H16.1766C16.2515 17.5454 16.1766 34.3221 16.1766 34.3221H22.1688Z" fill="black"/>
</g>
<defs>
<clipPath id="clip0_19_146">
<rect width="39.9482" height="41" fill="white" transform="translate(0.569336)"/>
</clipPath>
</defs>
</svg>
